<svg height="512pt" viewBox="0 -1 512.00034 512" width="512pt" xmlns="http://www.w3.org/2000/svg"><path d="m511.839844 215.804688-.003906.003906-15.058594 137.140625c-1.234375 11.273437-6.976563 21.582031-15.910156 28.574219l-115.046876 90.082031-17.21875 38.03125h-102.191406l34.59375-63.910157c-9.261718-8.132812-13.796875-20.867187-11.125-33.421874.292969-1.390626.671875-2.769532 1.144532-4.148438l22.503906-65.460938 11.570312-33.664062c.628906-1.832031 1.414063-3.5625 2.34375-5.1875 6.867188-12.042969 21.285156-18.148438 35.042969-14.074219 15.609375 4.632813 24.800781 20.742188 20.839844 36.535157l-14.648438 58.472656 72.242188-50.808594c8.691406-6.113281 14.75-15.289062 16.964843-25.695312l21.46875-100.910157c2.875-13.542969 15.648438-22.609375 29.386719-20.871093 3.558594.453124 6.871094 1.589843 9.816407 3.261718 8.945312 5.101563 14.476562 15.179688 13.285156 26.050782zm0 0" fill="#ffcfa2"/><path d="m464.300781 365.292969c-36.660156 47.609375-90.414062 51.949219-131.234375 46.277343-20.242187-2.8125-33.789062-22.234374-29.421875-42.199218 15.230469-69.625 27.207031-79.601563 38.835938-79.601563-13.753907-4.074219-28.175781 2.03125-35.039063 14.074219-.929687 1.625-1.714844 3.355469-2.34375 5.1875l-11.574218 33.664062-18.238282 53.054688s.003906.011719.003906.011719l-4.265624 12.394531c-4.757813 13.835938-.304688 28.535156 9.980468 37.566406l-34.59375 63.914063h102.1875l17.21875-38.035157 115.046875-90.082031c8.9375-6.992187 14.675781-17.300781 15.914063-28.570312l15.054687-137.140625c-33.429687 19.164062-23.492187 116.765625-47.53125 149.484375zm0 0" fill="#e8b07e"/><path d="m.160156 215.804688.003906.003906 15.058594 137.140625c1.238282 11.273437 6.976563 21.582031 15.914063 28.574219l115.046875 90.082031 17.21875 38.03125h102.1875l-34.59375-63.910157c9.261718-8.132812 13.796875-20.867187 11.125-33.421874-.289063-1.390626-.671875-2.769532-1.144532-4.148438l-22.503906-65.460938-11.570312-33.664062c-.628906-1.832031-1.414063-3.5625-2.34375-5.1875-6.867188-12.042969-21.285156-18.148438-35.039063-14.074219-15.613281 4.632813-24.804687 20.742188-20.84375 36.535157l14.648438 58.472656-72.242188-50.808594c-8.691406-6.113281-14.75-15.289062-16.964843-25.695312l-21.46875-100.910157c-2.875-13.542969-15.644532-22.609375-29.386719-20.871093-3.554688.453124-6.867188 1.589843-9.816407 3.261718-8.945312 5.101563-14.476562 15.179688-13.285156 26.050782zm0 0" fill="#ffcfa2"/><path d="m47.699219 365.292969c36.660156 47.609375 90.417969 51.949219 131.234375 46.277343 20.242187-2.8125 33.789062-22.234374 29.421875-42.199218-15.230469-69.625-27.203125-79.601563-38.835938-79.601563 13.753907-4.074219 28.175781 2.03125 35.039063 14.074219.933594 1.625 1.714844 3.355469 2.34375 5.1875l11.574218 33.664062 18.238282 53.054688s-.003906.011719-.003906.011719l4.265624 12.394531c4.757813 13.835938.304688 28.535156-9.976562 37.566406l34.589844 63.914063h-102.1875l-17.21875-38.035157-115.046875-90.082031c-8.9375-6.992187-14.675781-17.300781-15.914063-28.570312l-15.058594-137.140625c33.433594 19.164062 23.496094 116.765625 47.535157 149.484375zm0 0" fill="#e8b07e"/><path d="m423.75 76.144531c0 77.421875-167.746094 205.722657-167.746094 205.722657s-.011718-.011719-.019531-.023438c-2.1875-1.664062-167.726563-128.789062-167.726563-205.699219 0-77.425781 116.128907-116.128906 167.746094-16.128906 31.128906-60.304687 85.71875-70.164063 124.15625-51.507813 25.296875 12.273438 43.589844 36.902344 43.589844 67.636719zm0 0" fill="#f64f44"/><path d="m380.160156 8.507812c-21.765625-7.277343-88.441406 26.179688-111.511718 76.761719-4.488282 9.84375-17.75 11.660157-24.6875 3.355469-19.921876-23.847656-53.824219-53.25-83.246094-23.828125-68.507813 68.507813 93.332031 214.664063 95.269531 217.046875-2.1875-1.664062-167.726563-128.789062-167.726563-205.699219 0-77.425781 116.128907-116.128906 167.746094-16.128906 31.128906-60.304687 85.71875-70.164063 124.15625-51.507813zm0 0" fill="#d22e29"/></svg>